<svg width="537" height="655" viewBox="0 0 537 655" fill="none" xmlns="http://www.w3.org/2000/svg">
<rect width="206.25" height="52.0038" rx="4.62256" transform="matrix(0.999343 0.0362374 0.0362374 -0.999343 65 138.97)" fill="#F1F1F1"/>
<path d="M81.0647 120.536L81.5924 105.984L85.8123 106.138L88.5195 119.308L88.8521 119.32L92.506 106.38L96.7259 106.533L96.1983 121.085L94.0156 121.006L94.4859 108.034L94.1533 108.022L90.5232 120.879L86.7398 120.742L84.0504 107.656L83.7178 107.644L83.2474 120.615L81.0647 120.536ZM103.984 121.658C102.944 121.621 102.044 121.373 101.284 120.915C100.524 120.444 99.9364 119.805 99.5216 118.999C99.1211 118.179 98.94 117.243 98.9782 116.19L98.9872 115.94C99.0259 114.873 99.2744 113.953 99.7326 113.178C100.191 112.39 100.81 111.795 101.587 111.393C102.38 110.978 103.282 110.788 104.293 110.825C105.277 110.861 106.128 111.114 106.847 111.584C107.58 112.04 108.14 112.664 108.527 113.456C108.915 114.247 109.09 115.162 109.052 116.201L109.023 117.012L101.144 116.726C101.139 117.628 101.411 118.36 101.96 118.921C102.523 119.468 103.234 119.758 104.093 119.789C104.897 119.818 105.506 119.66 105.921 119.314C106.35 118.969 106.684 118.565 106.923 118.102L108.656 119.08C108.448 119.461 108.149 119.86 107.76 120.276C107.384 120.692 106.893 121.035 106.286 121.305C105.68 121.574 104.912 121.692 103.984 121.658ZM101.225 115.085L106.9 115.291C106.872 114.513 106.617 113.9 106.134 113.452C105.651 112.99 105.008 112.745 104.204 112.716C103.4 112.687 102.734 112.885 102.205 113.31C101.69 113.721 101.364 114.313 101.225 115.085ZM111.436 121.637L111.808 111.389L113.907 111.465L113.863 112.671L114.196 112.683C114.403 112.329 114.726 112.022 115.166 111.76C115.606 111.499 116.193 111.381 116.927 111.408C117.69 111.436 118.294 111.617 118.739 111.952C119.2 112.274 119.539 112.682 119.757 113.176L120.089 113.188C120.342 112.725 120.696 112.343 121.151 112.04C121.62 111.738 122.27 111.602 123.101 111.632C123.767 111.656 124.351 111.816 124.853 112.112C125.357 112.394 125.751 112.81 126.036 113.362C126.322 113.9 126.45 114.563 126.422 115.353L126.175 122.172L124.033 122.094L124.275 115.442C124.297 114.818 124.141 114.334 123.807 113.989C123.487 113.63 123.015 113.44 122.391 113.417C121.726 113.393 121.185 113.588 120.767 114.003C120.35 114.418 120.127 115.028 120.097 115.832L119.876 121.943L117.735 121.866L117.976 115.214C117.998 114.59 117.843 114.106 117.508 113.76C117.188 113.402 116.716 113.211 116.093 113.189C115.427 113.165 114.886 113.36 114.469 113.775C114.051 114.19 113.828 114.799 113.799 115.603L113.577 121.715L111.436 121.637ZM135.174 122.789C134.176 122.753 133.413 122.545 132.886 122.165C132.372 121.786 131.992 121.37 131.745 120.917L131.412 120.905L131.359 122.36L129.26 122.284L129.788 107.732L131.929 107.81L131.722 113.506L132.055 113.518C132.231 113.247 132.462 112.991 132.749 112.752C133.035 112.499 133.41 112.297 133.874 112.147C134.337 111.998 134.901 111.935 135.567 111.959C136.426 111.99 137.208 112.227 137.914 112.669C138.619 113.11 139.173 113.734 139.574 114.54C139.975 115.345 140.155 116.295 140.116 117.39L140.104 117.702C140.064 118.811 139.808 119.752 139.336 120.526C138.878 121.286 138.281 121.861 137.546 122.251C136.824 122.641 136.033 122.821 135.174 122.789ZM134.618 120.896C135.547 120.93 136.32 120.659 136.937 120.085C137.569 119.511 137.904 118.67 137.945 117.561L137.951 117.374C137.991 116.279 137.724 115.423 137.149 114.806C136.575 114.188 135.817 113.862 134.874 113.828C133.96 113.795 133.187 114.065 132.555 114.639C131.938 115.213 131.609 116.048 131.569 117.143L131.563 117.33C131.522 118.439 131.79 119.302 132.364 119.919C132.952 120.537 133.703 120.863 134.618 120.896ZM147.265 123.228C146.225 123.19 145.325 122.942 144.565 122.485C143.805 122.013 143.217 121.374 142.803 120.568C142.402 119.749 142.221 118.813 142.259 117.759L142.268 117.51C142.307 116.443 142.555 115.522 143.014 114.748C143.472 113.959 144.091 113.364 144.868 112.962C145.661 112.547 146.563 112.358 147.574 112.394C148.558 112.43 149.409 112.683 150.128 113.153C150.861 113.61 151.421 114.234 151.808 115.025C152.196 115.816 152.371 116.731 152.333 117.771L152.304 118.581L144.425 118.296C144.42 119.198 144.692 119.929 145.241 120.49C145.804 121.038 146.515 121.327 147.374 121.358C148.178 121.388 148.787 121.229 149.202 120.884C149.631 120.538 149.965 120.134 150.204 119.671L151.937 120.65C151.729 121.031 151.43 121.429 151.041 121.845C150.665 122.262 150.174 122.605 149.567 122.874C148.961 123.144 148.193 123.262 147.265 123.228ZM144.506 116.654L150.181 116.86C150.153 116.082 149.898 115.469 149.415 115.021C148.932 114.56 148.289 114.314 147.485 114.285C146.681 114.256 146.015 114.454 145.486 114.879C144.971 115.29 144.645 115.882 144.506 116.654ZM154.717 123.207L155.089 112.958L157.188 113.034L157.144 114.24L157.477 114.252C157.659 113.829 157.933 113.526 158.301 113.345C158.683 113.151 159.144 113.064 159.684 113.083L160.911 113.128L160.841 115.061L159.531 115.014C158.838 114.988 158.263 115.162 157.805 115.534C157.348 115.892 157.105 116.466 157.077 117.256L156.858 123.284L154.717 123.207ZM168.054 123.69L168.426 113.442L170.526 113.518L170.482 114.724L170.814 114.736C170.996 114.312 171.271 114.01 171.638 113.829C172.02 113.635 172.481 113.547 173.022 113.567L174.248 113.611L174.178 115.545L172.868 115.497C172.175 115.472 171.6 115.645 171.143 116.017C170.686 116.376 170.443 116.95 170.414 117.739L170.196 123.768L168.054 123.69ZM178.979 124.378C178.245 124.351 177.591 124.203 177.018 123.932C176.459 123.662 176.015 123.278 175.686 122.781C175.371 122.283 175.226 121.688 175.251 120.996C175.277 120.289 175.464 119.713 175.813 119.267C176.177 118.809 176.654 118.472 177.245 118.258C177.849 118.044 178.525 117.95 179.274 117.977L182.392 118.091L182.416 117.425C182.438 116.829 182.275 116.345 181.928 115.971C181.58 115.598 181.033 115.398 180.284 115.371C179.55 115.344 178.982 115.497 178.582 115.829C178.181 116.162 177.908 116.603 177.763 117.153L175.791 116.436C175.977 115.887 176.259 115.398 176.635 114.968C177.026 114.524 177.531 114.175 178.151 113.919C178.771 113.664 179.511 113.552 180.37 113.584C181.7 113.632 182.734 114.009 183.472 114.716C184.209 115.423 184.556 116.4 184.51 117.647L184.357 121.867C184.342 122.283 184.529 122.498 184.917 122.512L185.79 122.543L185.725 124.331L184.124 124.273C183.639 124.255 183.249 124.116 182.953 123.856C182.657 123.595 182.517 123.25 182.533 122.821L182.535 122.758L182.223 122.747C182.105 122.951 181.93 123.187 181.698 123.457C181.466 123.726 181.132 123.956 180.694 124.149C180.258 124.327 179.686 124.404 178.979 124.378ZM179.355 122.622C180.214 122.653 180.916 122.436 181.46 121.97C182.005 121.49 182.293 120.821 182.324 119.961L182.332 119.754L179.338 119.645C178.77 119.624 178.308 119.733 177.953 119.969C177.598 120.193 177.412 120.54 177.394 121.011C177.377 121.482 177.544 121.863 177.894 122.153C178.245 122.443 178.731 122.6 179.355 122.622ZM187.807 124.407L188.179 114.158L190.278 114.234L190.222 115.773L190.555 115.785C190.764 115.376 191.125 115 191.637 114.658C192.149 114.316 192.896 114.163 193.88 114.198C194.657 114.227 195.336 114.425 195.92 114.793C196.517 115.161 196.977 115.671 197.3 116.321C197.624 116.957 197.77 117.718 197.738 118.605L197.515 124.759L195.374 124.681L195.591 118.694C195.623 117.807 195.425 117.148 194.996 116.716C194.569 116.27 193.967 116.033 193.19 116.005C192.304 115.973 191.579 116.238 191.018 116.801C190.47 117.364 190.176 118.199 190.136 119.308L189.948 124.484L187.807 124.407ZM200.596 124.87L201.124 110.319L203.265 110.396L202.964 118.691L203.297 118.703L207.475 114.858L210.322 114.961L204.966 119.742L210.117 125.216L207.29 125.113L203.225 120.699L202.892 120.686L202.737 124.948L200.596 124.87ZM212.046 125.286L212.418 115.037L214.559 115.115L214.187 125.363L212.046 125.286ZM213.549 113.684C213.133 113.668 212.785 113.524 212.503 113.25C212.236 112.963 212.11 112.604 212.126 112.175C212.141 111.745 212.293 111.404 212.579 111.151C212.88 110.884 213.239 110.758 213.655 110.773C214.084 110.789 214.432 110.94 214.7 111.227C214.967 111.501 215.093 111.852 215.078 112.282C215.062 112.711 214.911 113.06 214.623 113.327C214.337 113.58 213.979 113.699 213.549 113.684ZM217.365 125.478L217.736 115.23L219.836 115.306L219.78 116.844L220.113 116.856C220.322 116.448 220.682 116.072 221.194 115.73C221.706 115.388 222.454 115.235 223.438 115.27C224.214 115.298 224.894 115.496 225.477 115.865C226.075 116.233 226.535 116.742 226.858 117.392C227.182 118.029 227.328 118.79 227.296 119.677L227.073 125.83L224.931 125.753L225.149 119.766C225.181 118.879 224.983 118.22 224.554 117.788C224.126 117.342 223.524 117.105 222.748 117.077C221.861 117.045 221.137 117.31 220.575 117.872C220.028 118.435 219.734 119.271 219.693 120.38L219.506 125.556L217.365 125.478ZM229.839 120.852L229.85 120.54C229.89 119.459 230.138 118.545 230.595 117.799C231.066 117.052 231.67 116.485 232.405 116.095C233.141 115.705 233.939 115.526 234.798 115.557C235.796 115.593 236.551 115.808 237.064 116.201C237.591 116.595 237.971 117.011 238.205 117.45L238.538 117.462L238.591 115.986L240.67 116.062L240.222 128.41C240.2 129.033 239.995 129.525 239.607 129.886C239.233 130.247 238.727 130.416 238.09 130.393L231.188 130.143L231.256 128.272L237.492 128.498C237.894 128.512 238.103 128.312 238.118 127.896L238.236 124.632L237.904 124.62C237.742 124.864 237.518 125.113 237.231 125.366C236.945 125.619 236.57 125.821 236.106 125.971C235.657 126.121 235.092 126.184 234.413 126.159C233.554 126.128 232.764 125.898 232.045 125.469C231.339 125.028 230.785 124.418 230.383 123.64C229.982 122.848 229.8 121.919 229.839 120.852ZM235.063 124.309C235.992 124.343 236.764 124.08 237.382 123.519C238.013 122.945 238.347 122.139 238.385 121.099L238.392 120.912C238.431 119.845 238.162 119.017 237.587 118.427C237.012 117.823 236.254 117.504 235.311 117.47C234.397 117.437 233.624 117.7 232.993 118.26C232.376 118.807 232.049 119.614 232.01 120.681L232.003 120.868C231.966 121.907 232.234 122.736 232.808 123.353C233.397 123.957 234.149 124.276 235.063 124.309ZM247.64 126.868C246.337 126.82 245.266 126.49 244.428 125.877C243.59 125.264 243.095 124.365 242.944 123.18L244.957 122.774C245.047 123.346 245.218 123.803 245.469 124.145C245.721 124.488 246.038 124.735 246.421 124.888C246.818 125.041 247.245 125.126 247.702 125.142C248.381 125.167 248.906 125.054 249.276 124.804C249.659 124.554 249.859 124.221 249.874 123.806C249.889 123.39 249.727 123.079 249.387 122.872C249.048 122.665 248.541 122.487 247.866 122.338L247.164 122.188C246.476 122.038 245.852 121.835 245.292 121.579C244.732 121.322 244.294 120.98 243.976 120.553C243.659 120.125 243.512 119.585 243.535 118.934C243.57 117.964 243.958 117.228 244.698 116.728C245.438 116.214 246.404 115.978 247.596 116.021C248.746 116.063 249.679 116.36 250.394 116.914C251.124 117.454 251.584 118.171 251.773 119.066L249.757 119.555C249.655 118.927 249.408 118.481 249.015 118.217C248.622 117.939 248.128 117.789 247.532 117.767C246.95 117.746 246.489 117.841 246.148 118.05C245.808 118.246 245.631 118.538 245.617 118.926C245.602 119.342 245.75 119.653 246.062 119.858C246.388 120.064 246.826 120.226 247.377 120.343L248.1 120.494C248.83 120.645 249.495 120.843 250.097 121.087C250.699 121.331 251.166 121.667 251.497 122.095C251.842 122.524 252.002 123.085 251.977 123.778C251.94 124.803 251.53 125.586 250.747 126.127C249.964 126.667 248.928 126.914 247.64 126.868Z" fill="#141414"/>
<rect y="457.745" width="220.285" height="52.0038" rx="4.62256" transform="rotate(-10.659 0 457.745)" fill="#F1F1F1"/>
<path d="M21.2245 487.329L18.5312 473.02L27.5464 471.323L27.9235 473.326L21.1161 474.607L21.8894 478.716L28.1244 477.543L28.5015 479.546L22.2665 480.72L23.0552 484.91L29.9648 483.61L30.3419 485.613L21.2245 487.329ZM31.8463 485.33L34.7315 479.517L30.0313 475.237L32.5048 474.771L35.823 477.893L36.15 477.832L38.1061 473.717L40.6001 473.247L37.757 478.947L42.5583 483.314L40.0438 483.787L36.6694 480.591L36.3424 480.653L34.3608 484.857L31.8463 485.33ZM48.8992 482.417C47.9316 482.599 47.0141 482.56 46.1467 482.3C45.2929 482.037 44.5612 481.561 43.9517 480.872C43.3557 480.18 42.9551 479.288 42.7499 478.198L42.6999 477.932C42.4947 476.842 42.5452 475.873 42.8513 475.025C43.1684 474.161 43.6769 473.452 44.3768 472.896C45.0877 472.325 45.927 471.949 46.8946 471.766C47.8622 471.584 48.7201 471.606 49.4682 471.832C50.2163 472.058 50.85 472.426 51.3691 472.935C51.9019 473.442 52.2963 474.038 52.5523 474.723L50.5889 475.537C50.4361 475.1 50.216 474.718 49.9287 474.392C49.6414 474.065 49.2796 473.829 48.8434 473.686C48.4071 473.542 47.8891 473.527 47.2895 473.639C46.7035 473.75 46.1976 473.986 45.7719 474.348C45.3573 474.695 45.0611 475.145 44.8835 475.701C44.7032 476.243 44.6798 476.868 44.8132 477.577L44.8478 477.761C44.9812 478.47 45.2316 479.05 45.5991 479.503C45.9666 479.956 46.4064 480.269 46.9185 480.44C47.4442 480.609 48.0001 480.639 48.5861 480.529C49.4719 480.362 50.1042 480.01 50.4829 479.473C50.8591 478.923 51.0418 478.281 51.0311 477.55L53.1638 477.635C53.1311 478.361 52.9587 479.057 52.6465 479.722C52.3479 480.385 51.8913 480.958 51.2766 481.44C50.6593 481.909 49.8668 482.235 48.8992 482.417ZM56.2618 480.735L53.5686 466.425L55.6742 466.029L58.3674 480.339L56.2618 480.735ZM65.3905 479.207C64.6273 479.351 63.9139 479.309 63.2501 479.081C62.5863 478.853 62.0251 478.458 61.5664 477.895C61.1077 477.332 60.7962 476.615 60.6321 475.743L59.4932 469.692L61.5988 469.295L62.7107 475.203C62.8749 476.075 63.2148 476.682 63.7304 477.022C64.2435 477.349 64.8884 477.439 65.6652 477.293C66.5238 477.131 67.1582 476.716 67.5683 476.046C67.9895 475.36 68.0976 474.472 67.8924 473.381L66.9343 468.291L69.0399 467.895L70.9367 477.973L68.872 478.362L68.5873 476.849L68.2602 476.91C68.1464 477.355 67.8788 477.808 67.4574 478.268C67.0335 478.715 66.3445 479.028 65.3905 479.207ZM78.2325 476.896C76.9515 477.137 75.8346 477.051 74.8819 476.638C73.9292 476.224 73.2485 475.457 72.8396 474.334L74.7136 473.494C74.9278 474.033 75.1952 474.441 75.5157 474.719C75.8362 474.998 76.2 475.169 76.6073 475.234C77.0282 475.295 77.4635 475.284 77.9132 475.199C78.581 475.074 79.0677 474.848 79.3733 474.522C79.6925 474.194 79.8137 473.826 79.7367 473.417C79.6598 473.008 79.433 472.74 79.0564 472.614C78.6797 472.487 78.146 472.425 77.4551 472.428L76.737 472.436C76.0325 472.442 75.379 472.381 74.7767 472.255C74.1743 472.128 73.6711 471.892 73.2671 471.544C72.863 471.197 72.6007 470.703 72.4802 470.062C72.3006 469.108 72.5165 468.306 73.1277 467.655C73.7363 466.99 74.6267 466.547 75.7987 466.326C76.9299 466.114 77.9053 466.198 78.7251 466.58C79.5559 466.946 80.1625 467.544 80.5447 468.375L78.6861 469.297C78.448 468.706 78.1083 468.326 77.6669 468.155C77.2229 467.97 76.7079 467.933 76.1219 468.044C75.5495 468.151 75.1203 468.345 74.8342 468.625C74.5456 468.891 74.4372 469.214 74.5091 469.596C74.586 470.005 74.7992 470.275 75.1485 470.407C75.5115 470.536 75.9746 470.597 76.5377 470.59L77.2762 470.578C78.0216 470.565 78.7147 470.611 79.3553 470.716C79.996 470.821 80.5252 471.046 80.9429 471.391C81.3742 471.733 81.6539 472.245 81.7822 472.926C81.972 473.935 81.7447 474.789 81.1003 475.489C80.4559 476.188 79.5 476.658 78.2325 476.896ZM84.7896 475.366L82.8928 465.288L84.9984 464.891L86.8952 474.969L84.7896 475.366ZM83.698 463.718C83.2892 463.795 82.9173 463.731 82.5824 463.526C82.2585 463.304 82.0568 462.982 81.9773 462.56C81.8978 462.138 81.9699 461.771 82.1938 461.461C82.4287 461.135 82.7505 460.933 83.1594 460.856C83.5819 460.776 83.955 460.847 84.2789 461.068C84.6002 461.276 84.8006 461.591 84.8801 462.014C84.9597 462.436 84.8888 462.809 84.6675 463.133C84.4437 463.443 84.1205 463.638 83.698 463.718ZM92.3505 473.943L87.0602 464.503L89.2885 464.084L93.5708 472.104L93.8979 472.043L94.9715 463.014L97.1997 462.595L95.7031 473.312L92.3505 473.943ZM105.474 471.769C104.452 471.961 103.52 471.918 102.677 471.639C101.832 471.347 101.118 470.853 100.536 470.159C99.9643 469.448 99.5812 468.574 99.3863 467.538L99.3401 467.293C99.1426 466.244 99.182 465.291 99.4583 464.435C99.732 463.565 100.204 462.848 100.874 462.284C101.555 461.705 102.393 461.321 103.388 461.134C104.356 460.952 105.242 461.011 106.046 461.311C106.861 461.595 107.545 462.08 108.098 462.766C108.65 463.452 109.023 464.307 109.215 465.329L109.365 466.126L101.617 467.584C101.811 468.465 102.238 469.118 102.897 469.545C103.566 469.955 104.324 470.081 105.169 469.922C105.959 469.773 106.519 469.484 106.847 469.055C107.189 468.624 107.426 468.156 107.557 467.652L109.464 468.224C109.345 468.642 109.141 469.096 108.853 469.588C108.578 470.077 108.174 470.52 107.642 470.917C107.11 471.313 106.387 471.597 105.474 471.769ZM101.334 465.965L106.915 464.915C106.717 464.162 106.332 463.621 105.762 463.29C105.19 462.947 104.508 462.849 103.718 462.998C102.927 463.147 102.321 463.487 101.899 464.018C101.488 464.532 101.299 465.182 101.334 465.965ZM118.718 473.213L116.052 459.047L118.117 458.658L118.39 460.109L118.717 460.048C118.891 459.549 119.204 459.074 119.655 458.622C120.12 458.168 120.843 457.849 121.824 457.664C122.669 457.505 123.478 457.564 124.25 457.842C125.035 458.118 125.713 458.604 126.281 459.302C126.861 459.983 127.254 460.868 127.459 461.959L127.516 462.265C127.722 463.356 127.686 464.329 127.41 465.185C127.131 466.028 126.676 466.72 126.044 467.263C125.412 467.805 124.674 468.155 123.829 468.314C123.175 468.438 122.607 468.46 122.127 468.381C121.646 468.302 121.247 468.165 120.928 467.971C120.607 467.764 120.339 467.539 120.124 467.297L119.797 467.359L120.824 472.817L118.718 473.213ZM122.869 466.59C123.796 466.416 124.497 465.98 124.973 465.284C125.449 464.588 125.584 463.694 125.379 462.604L125.344 462.42C125.142 461.343 124.685 460.569 123.975 460.095C123.279 459.62 122.474 459.468 121.561 459.64C120.662 459.809 119.967 460.243 119.478 460.942C119.002 461.638 118.866 462.525 119.068 463.601L119.103 463.785C119.308 464.876 119.759 465.659 120.455 466.134C121.165 466.607 121.97 466.759 122.869 466.59ZM131.045 466.66L129.148 456.582L131.213 456.193L131.436 457.379L131.763 457.317C131.847 456.864 132.048 456.509 132.367 456.251C132.696 455.978 133.127 455.791 133.658 455.691L134.864 455.464L135.222 457.365L133.934 457.607C133.253 457.735 132.73 458.031 132.366 458.495C131.999 458.945 131.889 459.559 132.035 460.335L133.151 466.264L131.045 466.66ZM143.367 464.637C142.359 464.827 141.421 464.792 140.553 464.532C139.697 464.255 138.971 463.771 138.375 463.079C137.779 462.387 137.381 461.509 137.181 460.446L137.123 460.14C136.923 459.077 136.976 458.121 137.282 457.273C137.586 456.412 138.086 455.697 138.784 455.128C139.495 454.557 140.354 454.176 141.363 453.987C142.371 453.797 143.31 453.839 144.18 454.112C145.05 454.386 145.783 454.869 146.379 455.561C146.973 456.24 147.369 457.111 147.569 458.174L147.627 458.48C147.827 459.543 147.776 460.505 147.472 461.367C147.168 462.228 146.661 462.945 145.95 463.516C145.237 464.074 144.376 464.447 143.367 464.637ZM143.013 462.756C143.94 462.582 144.634 462.148 145.097 461.454C145.57 460.744 145.708 459.865 145.51 458.815L145.475 458.631C145.278 457.582 144.838 456.818 144.155 456.34C143.47 455.848 142.657 455.69 141.717 455.867C140.804 456.039 140.11 456.48 139.637 457.19C139.175 457.884 139.043 458.755 139.24 459.805L139.275 459.989C139.473 461.038 139.914 461.809 140.599 462.301C141.295 462.776 142.1 462.928 143.013 462.756ZM155.392 462.374C154.561 462.53 153.752 462.471 152.967 462.195C152.181 461.92 151.499 461.442 150.919 460.761C150.35 460.063 149.963 459.169 149.758 458.079L149.7 457.773C149.498 456.696 149.534 455.729 149.811 454.873C150.087 454.017 150.541 453.317 151.173 452.775C151.804 452.233 152.543 451.882 153.388 451.723C154.042 451.6 154.602 451.579 155.069 451.661C155.55 451.74 155.958 451.882 156.293 452.087C156.625 452.278 156.892 452.496 157.093 452.741L157.42 452.679L156.366 447.078L158.471 446.681L161.165 460.991L159.1 461.38L158.831 459.949L158.503 460.01C158.327 460.495 158.006 460.965 157.541 461.419C157.09 461.871 156.374 462.189 155.392 462.374ZM155.639 460.423C156.552 460.251 157.246 459.817 157.722 459.12C158.211 458.421 158.354 457.527 158.148 456.437L158.114 456.253C157.911 455.176 157.462 454.4 156.765 453.924C156.069 453.448 155.257 453.298 154.331 453.472C153.431 453.641 152.737 454.075 152.247 454.774C151.772 455.471 151.635 456.357 151.838 457.434L151.872 457.618C152.078 458.708 152.528 459.491 153.225 459.967C153.935 460.44 154.739 460.592 155.639 460.423ZM168.162 459.865C167.399 460.008 166.686 459.966 166.022 459.738C165.358 459.51 164.797 459.115 164.338 458.552C163.88 457.99 163.568 457.272 163.404 456.4L162.265 450.349L164.371 449.953L165.483 455.86C165.647 456.733 165.987 457.339 166.502 457.679C167.015 458.006 167.66 458.096 168.437 457.95C169.296 457.789 169.93 457.373 170.34 456.703C170.761 456.017 170.869 455.129 170.664 454.039L169.706 448.948L171.812 448.552L173.709 458.63L171.644 459.019L171.359 457.506L171.032 457.568C170.918 458.012 170.651 458.465 170.229 458.925C169.805 459.372 169.116 459.685 168.162 459.865ZM181.556 457.45C180.589 457.632 179.671 457.593 178.804 457.333C177.95 457.07 177.218 456.594 176.609 455.904C176.013 455.212 175.612 454.321 175.407 453.231L175.357 452.965C175.152 451.875 175.202 450.905 175.509 450.058C175.826 449.194 176.334 448.484 177.034 447.929C177.745 447.358 178.584 446.981 179.552 446.799C180.52 446.617 181.377 446.639 182.125 446.865C182.874 447.091 183.507 447.459 184.026 447.968C184.559 448.474 184.954 449.07 185.21 449.756L183.246 450.57C183.093 450.133 182.873 449.751 182.586 449.424C182.299 449.097 181.937 448.862 181.501 448.718C181.064 448.575 180.546 448.559 179.947 448.672C179.361 448.782 178.855 449.019 178.429 449.381C178.015 449.727 177.718 450.178 177.541 450.734C177.361 451.275 177.337 451.901 177.47 452.609L177.505 452.793C177.638 453.502 177.889 454.083 178.256 454.536C178.624 454.989 179.064 455.301 179.576 455.473C180.101 455.642 180.657 455.671 181.243 455.561C182.129 455.394 182.761 455.043 183.14 454.506C183.516 453.955 183.699 453.314 183.688 452.582L185.821 452.668C185.788 453.393 185.616 454.089 185.304 454.755C185.005 455.418 184.549 455.99 183.934 456.473C183.317 456.942 182.524 457.267 181.556 457.45ZM192.342 455.123C191.728 455.239 191.203 455.147 190.766 454.848C190.342 454.547 190.073 454.09 189.957 453.477L188.776 447.201L185.996 447.724L185.661 445.945L188.441 445.422L187.814 442.09L189.92 441.694L190.547 445.026L193.552 444.46L193.887 446.239L190.882 446.804L191.994 452.712C192.071 453.121 192.3 453.29 192.681 453.218L194.787 452.822L195.122 454.6L192.342 455.123ZM202.106 453.582C200.825 453.823 199.708 453.737 198.755 453.324C197.803 452.91 197.122 452.142 196.713 451.02L198.587 450.18C198.801 450.718 199.069 451.127 199.389 451.405C199.71 451.683 200.073 451.855 200.481 451.919C200.901 451.981 201.337 451.97 201.787 451.885C202.454 451.76 202.941 451.534 203.247 451.208C203.566 450.88 203.687 450.512 203.61 450.103C203.533 449.694 203.306 449.426 202.93 449.299C202.553 449.173 202.019 449.111 201.328 449.114L200.61 449.122C199.906 449.128 199.252 449.067 198.65 448.941C198.048 448.814 197.544 448.577 197.14 448.23C196.736 447.883 196.474 447.389 196.354 446.748C196.174 445.794 196.39 444.992 197.001 444.34C197.61 443.675 198.5 443.233 199.672 443.012C200.803 442.799 201.779 442.884 202.598 443.266C203.429 443.631 204.036 444.23 204.418 445.061L202.559 445.982C202.321 445.392 201.982 445.012 201.54 444.841C201.096 444.656 200.581 444.619 199.995 444.729C199.423 444.837 198.994 445.031 198.708 445.31C198.419 445.576 198.311 445.9 198.382 446.282C198.459 446.691 198.673 446.961 199.022 447.093C199.385 447.222 199.848 447.283 200.411 447.276L201.15 447.264C201.895 447.25 202.588 447.296 203.229 447.402C203.869 447.507 204.399 447.732 204.816 448.076C205.247 448.419 205.527 448.93 205.656 449.612C205.845 450.62 205.618 451.475 204.974 452.174C204.329 452.874 203.373 453.343 202.106 453.582Z" fill="#141414"/>
<rect x="96.6777" y="229.672" width="120.947" height="84.1536" rx="7.48086" transform="rotate(27.1769 96.6777 229.672)" fill="#F1F1F1"/>
<path d="M94.1648 289.083L104.928 268.12L111.157 271.318L107.191 293.047L107.67 293.293L117.326 274.486L120.53 276.131L109.767 297.094L103.538 293.896L107.52 272.138L107.04 271.892L97.3692 290.729L94.1648 289.083ZM114.14 299.339L124.902 278.376L137.84 285.018L136.333 287.953L126.63 282.971L123.524 289.02L132.448 293.602L130.942 296.537L122.017 291.955L117.374 300.999L114.14 299.339ZM135.226 310.165L144.482 292.137L138.043 288.831L139.55 285.896L155.662 294.168L154.155 297.103L147.716 293.797L138.46 311.826L135.226 310.165ZM151.298 318.946C149.421 317.983 148.079 316.764 147.272 315.29C146.464 313.816 146.357 312.159 146.948 310.318L150.177 311.105C149.916 312.006 149.853 312.793 149.986 313.467C150.119 314.141 150.414 314.721 150.871 315.208C151.347 315.705 151.915 316.122 152.574 316.461C153.552 316.963 154.398 317.158 155.112 317.045C155.846 316.942 156.367 316.592 156.674 315.993C156.982 315.394 156.958 314.826 156.602 314.291C156.246 313.755 155.625 313.146 154.739 312.464L153.813 311.762C152.907 311.069 152.132 310.343 151.488 309.584C150.844 308.824 150.436 308.022 150.264 307.177C150.092 306.332 150.248 305.44 150.729 304.502C151.447 303.104 152.519 302.293 153.947 302.067C155.385 301.821 156.963 302.139 158.68 303.021C160.337 303.872 161.499 304.948 162.168 306.25C162.867 307.542 163.048 308.909 162.711 310.351L159.421 309.684C159.703 308.693 159.647 307.869 159.252 307.213C158.868 306.536 158.246 305.977 157.388 305.536C156.549 305.106 155.809 304.927 155.165 305.001C154.533 305.054 154.073 305.361 153.786 305.92C153.478 306.519 153.482 307.076 153.798 307.591C154.133 308.116 154.665 308.654 155.392 309.204L156.347 309.922C157.313 310.645 158.153 311.391 158.868 312.162C159.582 312.932 160.035 313.745 160.227 314.6C160.439 315.466 160.288 316.398 159.776 317.396C159.017 318.873 157.879 319.739 156.36 319.994C154.842 320.249 153.154 319.9 151.298 318.946Z" fill="#141414"/>
<g clip-path="url(#clip0_29315_9611)">
<path d="M380.269 71.1212L364.207 103.618L312.211 77.9187L328.274 45.4215" stroke="#F1F1F1" stroke-width="2" stroke-linecap="round" stroke-linejoin="round"/>
<path d="M394.8 58.0851L329.805 25.9605L321.774 42.2091L386.769 74.3337L394.8 58.0851Z" stroke="#F1F1F1" stroke-width="2" stroke-linecap="round" stroke-linejoin="round"/>
<path d="M338.209 90.7685L362.303 42.0228" stroke="#F1F1F1" stroke-width="2" stroke-linecap="round" stroke-linejoin="round"/>
<path d="M362.303 42.0228L347.679 34.7947C345.524 33.7297 343.881 31.8524 343.11 29.5757C342.34 27.2991 342.505 24.8096 343.57 22.6549C344.635 20.5002 346.512 18.8568 348.789 18.0863C351.066 17.3157 353.555 17.4812 355.71 18.5462C367.084 24.168 362.303 42.0228 362.303 42.0228Z" stroke="#F1F1F1" stroke-width="2" stroke-linecap="round" stroke-linejoin="round"/>
<path d="M362.303 42.0228L376.926 49.2508C379.081 50.3158 381.57 50.4812 383.847 49.7107C386.124 48.9402 388.001 47.2968 389.066 45.1421C390.131 42.9874 390.297 40.4979 389.526 38.2212C388.755 35.9446 387.112 34.0672 384.957 33.0022C373.583 27.3804 362.303 42.0228 362.303 42.0228Z" stroke="#F1F1F1" stroke-width="2" stroke-linecap="round" stroke-linejoin="round"/>
</g>
<g clip-path="url(#clip1_29315_9611)">
<path d="M250.489 578.355L270.297 608.714L221.721 640.407L201.913 610.047" stroke="#F1F1F1" stroke-width="2" stroke-linecap="round" stroke-linejoin="round"/>
<path d="M246.657 559.213L185.938 598.829L195.841 614.009L256.561 574.393L246.657 559.213Z" stroke="#F1F1F1" stroke-width="2" stroke-linecap="round" stroke-linejoin="round"/>
<path d="M246.009 624.561L216.297 579.021" stroke="#F1F1F1" stroke-width="2" stroke-linecap="round" stroke-linejoin="round"/>
<path d="M216.297 579.021L202.635 587.935C200.622 589.248 198.17 589.708 195.818 589.213C193.466 588.719 191.407 587.31 190.093 585.297C188.78 583.284 188.32 580.832 188.815 578.48C189.31 576.128 190.718 574.068 192.731 572.755C203.357 565.822 216.297 579.021 216.297 579.021Z" stroke="#F1F1F1" stroke-width="2" stroke-linecap="round" stroke-linejoin="round"/>
<path d="M216.297 579.021L229.959 570.108C231.972 568.794 233.381 566.735 233.875 564.383C234.37 562.031 233.91 559.579 232.597 557.566C231.284 555.553 229.224 554.144 226.872 553.649C224.52 553.155 222.068 553.615 220.055 554.928C209.429 561.861 216.297 579.021 216.297 579.021Z" stroke="#F1F1F1" stroke-width="2" stroke-linecap="round" stroke-linejoin="round"/>
</g>
<path d="M413 117L426.344 195.555L480.039 136.685L448.795 209.983L525.794 189.489L459.882 234.259L535.738 258.647L456.084 260.676L506.713 322.203L438.607 280.845L447.935 359.977L413 288.364L378.065 359.977L387.393 280.845L319.287 322.203L369.916 260.676L290.262 258.647L366.118 234.259L300.206 189.489L377.205 209.983L345.961 136.685L399.656 195.555L413 117Z" fill="#F1F1F1"/>
<path d="M386.771 239.599C385.729 239.259 384.888 238.774 384.248 238.142C383.608 237.511 383.191 236.777 382.997 235.94C382.816 235.108 382.876 234.231 383.177 233.308L383.248 233.09L385.364 233.78L385.299 233.978C385.024 234.822 385.06 235.585 385.407 236.266C385.771 236.939 386.421 237.428 387.357 237.733C388.32 238.047 389.15 238.026 389.85 237.671C390.549 237.315 391.045 236.689 391.337 235.793L391.395 235.615C391.674 234.758 391.634 233.986 391.274 233.3C390.928 232.618 390.352 232.146 389.548 231.884C389.1 231.738 388.7 231.688 388.35 231.734C388.017 231.771 387.726 231.859 387.477 231.997C387.241 232.138 387.034 232.282 386.855 232.428L384.224 231.571L386.706 223.957L395.982 226.98L395.369 228.859L388.171 226.512L386.842 230.586L387.159 230.69C387.364 230.508 387.617 230.358 387.919 230.237C388.238 230.108 388.617 230.042 389.056 230.039C389.494 230.036 389.99 230.125 390.544 230.305C391.362 230.572 392.042 230.99 392.585 231.561C393.146 232.123 393.512 232.812 393.684 233.626C393.861 234.427 393.792 235.309 393.478 236.272L393.407 236.489C393.094 237.452 392.616 238.223 391.975 238.801C391.335 239.38 390.567 239.743 389.674 239.889C388.793 240.039 387.826 239.943 386.771 239.599ZM395.433 242.401L394.502 240.959L409.665 231.156L410.596 232.597L395.433 242.401ZM404.009 245.152C403.033 244.834 402.35 244.313 401.959 243.587C401.573 242.849 401.532 242.011 401.837 241.075L401.876 240.957C402.186 240.007 402.712 239.355 403.455 238.999C404.202 238.63 405.064 238.604 406.04 238.922C407.002 239.236 407.683 239.765 408.083 240.507C408.487 241.237 408.534 242.077 408.225 243.026L408.186 243.145C407.881 244.081 407.348 244.731 406.587 245.096C405.844 245.452 404.985 245.47 404.009 245.152ZM404.46 243.768C404.935 243.923 405.351 243.898 405.71 243.694C406.081 243.494 406.344 243.157 406.499 242.682L406.589 242.405C406.748 241.917 406.736 241.483 406.554 241.103C406.385 240.727 406.063 240.462 405.588 240.307C405.127 240.156 404.711 240.181 404.339 240.381C403.981 240.585 403.722 240.931 403.563 241.419L403.473 241.696C403.318 242.17 403.325 242.596 403.495 242.972C403.677 243.352 403.999 243.618 404.46 243.768ZM399.058 234.634C398.082 234.316 397.393 233.792 396.989 233.062C396.602 232.324 396.562 231.486 396.867 230.55L396.912 230.412C397.221 229.463 397.748 228.81 398.491 228.454C399.247 228.103 400.113 228.086 401.089 228.404C402.051 228.718 402.728 229.237 403.119 229.963C403.523 230.692 403.57 231.532 403.26 232.481L403.215 232.62C402.91 233.556 402.384 234.208 401.636 234.577C400.893 234.933 400.034 234.952 399.058 234.634ZM399.509 233.249C399.971 233.4 400.381 233.373 400.739 233.169C401.115 232.956 401.38 232.612 401.535 232.137L401.625 231.861C401.78 231.386 401.766 230.958 401.583 230.578C401.414 230.202 401.099 229.939 400.637 229.788C400.163 229.634 399.74 229.656 399.368 229.856C399.01 230.06 398.754 230.4 398.599 230.874L398.509 231.151C398.354 231.626 398.359 232.058 398.524 232.447C398.706 232.827 399.035 233.095 399.509 233.249ZM419.446 250.25C417.745 249.696 416.549 248.78 415.856 247.504C415.168 246.215 415.118 244.668 415.707 242.861L416.764 239.618C417.353 237.811 418.303 236.597 419.614 235.974C420.93 235.338 422.439 235.298 424.139 235.852C425.84 236.406 427.035 237.328 427.723 238.617C428.429 239.898 428.487 241.441 427.899 243.247L426.841 246.491C426.253 248.297 425.294 249.516 423.965 250.148C422.653 250.77 421.147 250.804 419.446 250.25ZM420.072 248.332C421.166 248.688 422.113 248.647 422.913 248.207C423.716 247.755 424.299 246.975 424.66 245.867L425.769 242.465C426.13 241.358 426.117 240.391 425.73 239.565C425.347 238.725 424.608 238.127 423.514 237.77C422.446 237.422 421.504 237.472 420.687 237.921C419.874 238.356 419.287 239.127 418.926 240.235L417.817 243.637C417.456 244.744 417.473 245.72 417.869 246.564C418.27 247.394 419.004 247.983 420.072 248.332ZM429.462 253.208L432.079 245.179L429.35 244.289L429.911 242.568L432.64 243.458L433.336 241.322C433.53 240.729 433.862 240.312 434.334 240.072C434.806 239.832 435.339 239.809 435.932 240.002L438.444 240.821L437.883 242.542L436.024 241.936C435.642 241.811 435.386 241.947 435.257 242.342L434.677 244.122L436.872 244.838L436.312 246.558L434.116 245.843L431.499 253.872L429.462 253.208ZM435.87 255.297L438.487 247.267L436.312 246.558L436.872 244.838L439.048 245.547L439.744 243.411C439.938 242.818 440.264 242.399 440.722 242.155C441.195 241.915 441.734 241.893 442.34 242.091L444.852 242.91L444.291 244.63L442.432 244.025C442.05 243.9 441.794 244.035 441.665 244.431L441.085 246.211L443.893 247.126L443.332 248.847L440.524 247.931L437.907 255.961L435.87 255.297Z" fill="#141414"/>
<ellipse cx="405" cy="523" rx="73" ry="74" fill="#F1F1F1"/>
<path d="M378.565 504.884L379.176 502.983L381.033 503.596L384.268 493.537L382.411 492.923L383.023 491.022L390.034 493.339C390.864 493.613 391.541 493.997 392.067 494.492C392.596 494.974 392.948 495.536 393.12 496.177C393.31 496.809 393.291 497.482 393.061 498.195L392.998 498.393C392.794 499.026 392.508 499.509 392.139 499.84C391.77 500.171 391.379 500.392 390.964 500.503C390.563 500.619 390.196 500.673 389.863 500.665L389.762 500.982C390.039 501.161 390.311 501.426 390.577 501.777C390.86 502.119 391.054 502.534 391.16 503.021C391.278 503.513 391.231 504.089 391.019 504.749L390.955 504.947C390.709 505.713 390.321 506.308 389.792 506.732C389.262 507.155 388.635 507.408 387.909 507.49C387.197 507.576 386.433 507.484 385.616 507.214L378.565 504.884ZM383.199 504.268L385.984 505.188C386.695 505.423 387.309 505.437 387.828 505.228C388.347 505.02 388.703 504.612 388.899 504.005L388.956 503.827C389.151 503.219 389.1 502.677 388.802 502.198C388.518 501.725 388.013 501.368 387.289 501.129L384.504 500.209L383.199 504.268ZM385.134 498.248L387.919 499.168C388.591 499.39 389.184 499.404 389.698 499.208C390.217 499 390.569 498.605 390.756 498.025L390.82 497.827C391.007 497.246 390.949 496.723 390.647 496.258C390.362 495.784 389.878 495.434 389.193 495.208L386.408 494.288L385.134 498.248ZM392.235 509.401L395.374 499.638L397.369 500.297L397 501.446L397.316 501.55C397.605 501.193 397.951 500.979 398.353 500.907C398.772 500.826 399.238 500.871 399.752 501.041L400.917 501.426L400.325 503.267L399.081 502.856C398.422 502.639 397.823 502.645 397.283 502.876C396.747 503.093 396.358 503.578 396.116 504.33L394.269 510.073L392.235 509.401ZM402.536 513.111C401.838 512.881 401.25 512.555 400.774 512.135C400.31 511.719 399.988 511.225 399.808 510.654C399.64 510.088 399.663 509.475 399.875 508.815C400.091 508.141 400.428 507.639 400.884 507.308C401.357 506.968 401.907 506.777 402.532 506.735C403.17 506.698 403.845 506.797 404.556 507.032L407.519 508.01L407.723 507.377C407.905 506.809 407.88 506.297 407.648 505.841C407.416 505.384 406.945 505.039 406.234 504.804C405.536 504.573 404.95 504.562 404.475 504.77C404 504.978 403.618 505.327 403.33 505.816L401.631 504.575C401.959 504.1 402.362 503.707 402.84 503.398C403.336 503.079 403.916 502.884 404.58 502.811C405.245 502.739 405.985 502.837 406.801 503.107C408.065 503.525 408.955 504.177 409.472 505.063C409.988 505.949 410.055 506.986 409.673 508.175L408.38 512.195C408.253 512.591 408.373 512.85 408.742 512.971L409.572 513.245L409.024 514.949L407.503 514.446C407.042 514.294 406.705 514.051 406.492 513.718C406.279 513.384 406.238 513.013 406.37 512.604L406.389 512.544L406.092 512.446C405.923 512.61 405.691 512.788 405.395 512.983C405.1 513.177 404.716 513.306 404.244 513.369C403.777 513.419 403.207 513.333 402.536 513.111ZM403.373 511.526C404.189 511.796 404.922 511.782 405.571 511.485C406.224 511.175 406.682 510.611 406.946 509.793L407.009 509.595L404.165 508.655C403.625 508.477 403.153 508.452 402.747 508.581C402.346 508.696 402.073 508.979 401.928 509.427C401.784 509.876 401.841 510.289 402.098 510.666C402.356 511.044 402.781 511.33 403.373 511.526ZM411.002 515.602L414.141 505.839L416.136 506.498L415.665 507.964L415.981 508.068C416.293 507.733 416.741 507.472 417.325 507.286C417.91 507.099 418.669 507.16 419.604 507.469C420.342 507.713 420.94 508.093 421.4 508.61C421.874 509.132 422.177 509.751 422.311 510.467C422.449 511.169 422.383 511.943 422.111 512.788L420.226 518.65L418.192 517.978L420.026 512.274C420.297 511.43 420.286 510.739 419.992 510.204C419.702 509.656 419.189 509.26 418.451 509.016C417.609 508.737 416.841 508.791 416.15 509.175C415.471 509.565 414.962 510.287 414.622 511.343L413.037 516.274L411.002 515.602ZM427.094 521.226C426.291 520.961 425.61 520.517 425.053 519.894C424.496 519.272 424.125 518.522 423.942 517.643C423.775 516.756 423.862 515.784 424.202 514.728L424.297 514.431C424.633 513.388 425.125 512.558 425.775 511.94C426.426 511.322 427.157 510.929 427.969 510.759C428.781 510.589 429.595 510.639 430.411 510.909C431.044 511.117 431.545 511.371 431.915 511.668C432.299 511.97 432.588 512.292 432.784 512.635C432.984 512.964 433.114 513.284 433.174 513.596L433.49 513.7L435.235 508.274L437.27 508.947L432.812 522.809L430.817 522.15L431.263 520.763L430.947 520.659C430.561 520.999 430.056 521.255 429.432 521.429C428.821 521.607 428.042 521.539 427.094 521.226ZM428.24 519.633C429.122 519.924 429.937 519.88 430.686 519.499C431.448 519.123 431.999 518.407 432.338 517.351L432.396 517.172C432.731 516.13 432.707 515.231 432.323 514.476C431.94 513.721 431.3 513.196 430.405 512.9C429.536 512.613 428.72 512.657 427.958 513.034C427.21 513.414 426.668 514.126 426.332 515.169L426.275 515.347C425.935 516.403 425.957 517.309 426.341 518.064C426.738 518.823 427.371 519.346 428.24 519.633ZM369.022 531.219L372.856 519.297L368.609 517.894L369.233 515.954L379.859 519.465L379.235 521.405L374.989 520.002L371.155 531.924L369.022 531.219ZM379.958 535.139C378.984 534.817 378.179 534.332 377.542 533.684C376.923 533.026 376.518 532.25 376.325 531.354C376.133 530.457 376.202 529.495 376.533 528.465L376.628 528.168C376.96 527.138 377.461 526.325 378.134 525.73C378.81 525.121 379.589 524.735 380.471 524.574C381.367 524.417 382.302 524.5 383.276 524.822C384.25 525.144 385.054 525.636 385.686 526.297C386.318 526.959 386.73 527.738 386.923 528.634C387.12 529.517 387.052 530.473 386.721 531.503L386.626 531.8C386.295 532.829 385.791 533.649 385.114 534.258C384.438 534.867 383.652 535.25 382.757 535.407C381.866 535.55 380.933 535.461 379.958 535.139ZM380.544 533.317C381.44 533.613 382.255 533.569 382.991 533.184C383.744 532.79 384.284 532.085 384.611 531.068L384.668 530.89C384.995 529.873 384.973 528.99 384.602 528.239C384.236 527.476 383.599 526.944 382.69 526.644C381.808 526.352 380.99 526.403 380.237 526.797C379.502 527.182 378.971 527.883 378.644 528.899L378.586 529.078C378.26 530.094 378.279 530.984 378.645 531.748C379.029 532.503 379.662 533.026 380.544 533.317ZM387.637 537.37L392.094 523.508L394.128 524.18L391.588 532.081L391.904 532.185L396.958 529.649L399.664 530.544L393.224 533.651L396.683 540.359L393.997 539.471L391.292 534.087L390.976 533.982L389.671 538.042L387.637 537.37ZM402.331 542.531C401.343 542.205 400.546 541.716 399.941 541.063C399.339 540.397 398.949 539.618 398.769 538.726C398.607 537.825 398.688 536.873 399.01 535.87L399.087 535.632C399.413 534.616 399.902 533.799 400.552 533.181C401.207 532.55 401.962 532.15 402.817 531.98C403.691 531.801 404.608 531.87 405.569 532.188C406.504 532.497 407.252 532.978 407.815 533.631C408.394 534.275 408.762 535.032 408.92 535.902C409.077 536.772 408.996 537.702 408.678 538.692L408.43 539.464L400.944 536.991C400.694 537.858 400.757 538.638 401.131 539.331C401.523 540.015 402.127 540.493 402.943 540.762C403.707 541.015 404.335 541.032 404.827 540.815C405.332 540.602 405.763 540.306 406.118 539.927L407.516 541.353C407.213 541.662 406.818 541.962 406.331 542.254C405.857 542.55 405.292 542.743 404.637 542.834C403.982 542.924 403.213 542.823 402.331 542.531ZM401.467 535.433L406.859 537.215C407.044 536.458 406.965 535.797 406.623 535.231C406.285 534.652 405.734 534.236 404.97 533.984C404.206 533.731 403.513 533.736 402.89 533.997C402.284 534.25 401.81 534.728 401.467 535.433ZM409.49 544.591L412.63 534.828L414.624 535.487L414.153 536.952L414.469 537.057C414.781 536.722 415.229 536.461 415.813 536.274C416.398 536.087 417.157 536.149 418.092 536.458C418.83 536.701 419.428 537.082 419.889 537.599C420.362 538.12 420.665 538.739 420.799 539.455C420.937 540.158 420.871 540.932 420.599 541.777L418.714 547.638L416.68 546.966L418.514 541.263C418.785 540.418 418.774 539.728 418.48 539.193C418.19 538.644 417.677 538.248 416.939 538.004C416.097 537.726 415.329 537.779 414.638 538.164C413.959 538.553 413.45 539.276 413.11 540.332L411.525 545.263L409.49 544.591ZM425.543 550.201C424.305 549.792 423.367 549.176 422.729 548.352C422.091 547.527 421.86 546.524 422.036 545.341L424.079 545.512C424.01 546.088 424.05 546.575 424.198 546.975C424.347 547.375 424.584 547.701 424.91 547.955C425.25 548.213 425.637 548.414 426.071 548.558C426.716 548.771 427.25 548.809 427.673 548.671C428.11 548.538 428.391 548.273 428.519 547.877C428.646 547.481 428.575 547.136 428.305 546.842C428.035 546.549 427.597 546.236 426.99 545.904L426.357 545.563C425.736 545.227 425.193 544.857 424.725 544.454C424.257 544.052 423.929 543.6 423.74 543.099C423.552 542.599 423.557 542.038 423.757 541.418C424.054 540.494 424.625 539.894 425.471 539.619C426.322 539.33 427.313 539.373 428.445 539.747C429.538 540.108 430.353 540.655 430.89 541.387C431.444 542.11 431.69 542.929 431.629 543.844L429.561 543.752C429.633 543.119 429.517 542.62 429.212 542.257C428.91 541.88 428.477 541.598 427.91 541.41C427.357 541.228 426.889 541.19 426.505 541.297C426.125 541.39 425.876 541.622 425.757 541.991C425.63 542.387 425.688 542.728 425.931 543.013C426.188 543.302 426.565 543.58 427.062 543.846L427.715 544.194C428.374 544.543 428.96 544.919 429.471 545.322C429.983 545.724 430.339 546.178 430.541 546.683C430.756 547.192 430.758 547.777 430.545 548.437C430.231 549.414 429.625 550.053 428.727 550.355C427.829 550.657 426.767 550.606 425.543 550.201Z" fill="#141414"/>
<defs>
<clipPath id="clip0_29315_9611">
<rect width="87" height="87" fill="white" transform="translate(334.55) rotate(26.3017)"/>
</clipPath>
<clipPath id="clip1_29315_9611">
<rect width="87" height="87" fill="white" transform="translate(166 581.539) rotate(-33.1221)"/>
</clipPath>
</defs>
</svg>
