<svg width="34" height="32" viewBox="0 0 34 32" fill="none" xmlns="http://www.w3.org/2000/svg">
<g clip-path="url(#clip0_258_9624)">
<path d="M19.4001 24.8055C16.7772 23.8313 14.0793 23.6814 11.6062 24.3559C9.8826 24.8055 8.23389 25.7048 6.73506 26.8289L5.68587 27.7282L5.38611 28.028L6.06058 28.6275C6.13552 28.6275 6.13553 28.7025 6.21047 28.7774C6.36035 28.9273 6.51024 29.0022 6.73506 29.1521L7.18469 29.4519L7.63435 29.0772C7.70929 29.0022 7.85917 28.8524 8.00905 28.7774C9.358 27.6533 10.8568 26.9039 12.4306 26.5292C14.454 26.0046 16.6273 26.0795 18.8006 26.9039C20.5992 27.5784 24.2713 28.4027 28.6928 26.5292L28.8427 26.4542L29.0676 26.2294C29.0676 26.1545 29.1425 26.1545 29.2174 26.0795C29.5921 25.6299 29.9669 25.1802 30.2666 24.6556L31.7654 22.3325L29.3673 23.6814C25.8451 25.6299 22.6226 26.0046 19.4001 24.8055Z" fill="#B9B9B9"/>
<path d="M9.13325 16.7118C11.1567 16.1872 13.33 16.2621 15.5033 17.0865C17.9014 17.9858 24.0466 19.2598 30.9412 13.0396L32.0653 11.9155L32.1402 11.8406L32.44 11.5408L32.2901 11.1661C32.2152 10.8664 32.0653 10.4917 31.9154 10.1169L31.5407 9.06775L30.7913 9.81716C30.7163 9.96704 30.5664 10.042 30.4166 10.1919C27.1192 13.5642 22.0231 17.0115 16.1777 14.9132C13.5548 13.9389 10.8569 13.7891 8.38384 14.4635C5.98572 15.138 3.88736 16.412 1.93889 18.2106V18.1356L0.81477 19.3347C0.81477 19.4097 0.739842 19.4097 0.664901 19.4846L0.440063 19.7094L0.515009 20.0092C0.589951 20.3839 0.739828 20.7586 0.81477 21.1333L1.26442 22.3324L2.01383 21.3581C2.08878 21.2082 2.23865 21.1333 2.31359 20.9834C3.88736 19.5595 6.06066 17.5361 9.13325 16.7118Z" fill="#B9B9B9"/>
<path d="M1.86392 15.363C3.58756 13.5644 5.53602 12.4403 7.63438 11.8408C9.65779 11.3162 11.8311 11.3911 14.0044 12.2155C20.7491 14.6885 26.5945 10.6417 29.1425 8.4684L30.1168 7.49418L30.4915 7.19439L30.1917 6.74476C29.9669 6.51994 29.817 6.22017 29.5922 5.92041L29.1425 5.32086L28.6179 5.84546C28.543 5.9204 28.3931 6.07028 28.3182 6.14522C25.1706 9.14287 20.2995 12.2155 14.7538 10.1171C12.1309 9.14288 9.43297 8.993 6.95991 9.66747C5.38615 10.1171 3.88732 10.8665 2.38849 11.8408L0.81472 13.1148C0.664838 13.2647 0.589896 13.3396 0.440014 13.4895L0.290145 13.6393V13.8642C0.215204 14.3888 0.215195 14.9134 0.140253 15.363L0.0653076 17.2365L1.33932 15.8876C1.4892 15.7377 1.63909 15.5129 1.86392 15.363Z" fill="#B9B9B9"/>
<path d="M21.5733 29.9017L21.4234 30.3514L21.5733 29.9017C21.3485 29.8268 21.1986 29.7518 20.9738 29.6769C18.3509 28.7026 15.653 28.5528 13.1799 29.2272C12.6553 29.3771 12.1307 29.527 11.6061 29.7518L9.80754 30.5762L9.35791 30.801L10.8567 31.3256C11.3064 31.4755 11.756 31.6254 12.2057 31.7752L12.4305 31.8502L12.6553 31.7752C12.8801 31.7003 13.105 31.5504 13.3298 31.5504C13.4797 31.5504 13.6296 31.4755 13.7794 31.4005C15.578 30.9509 17.5265 30.9509 19.6248 31.6253C19.8497 31.7003 19.9996 31.7752 20.2244 31.8502L20.5991 32.0001L20.8239 31.9251C21.3485 31.7752 21.948 31.6254 22.3977 31.4005L24.496 30.6511L22.3227 30.1265C22.0979 30.0516 21.7981 29.9766 21.5733 29.9017Z" fill="#B9B9B9"/>
<path d="M33.0392 14.389L31.915 15.5132C31.7652 15.663 31.6153 15.8129 31.4654 15.9628C28.3928 18.8855 23.4467 22.033 17.901 19.9347C15.2781 18.9605 12.5802 18.8106 10.1072 19.4851C7.78398 20.1595 5.6856 21.3586 3.81207 23.1572L2.83785 24.2063L2.53809 24.5811L2.83785 25.0307C3.06267 25.3305 3.21256 25.5553 3.36244 25.8551L3.81207 26.5295L4.33667 25.8551C4.41161 25.7801 4.56149 25.6302 4.63643 25.5553C6.43502 23.6068 8.38349 22.4077 10.6317 21.8082C12.6551 21.2836 14.8284 21.3586 17.0017 22.1829C18.8753 22.8574 20.8238 23.0822 22.7722 22.8574C26.2195 22.4827 29.6668 20.5342 32.2148 18.3609C32.3647 18.2111 32.5146 18.1361 32.6645 17.9862L32.8893 17.7614V17.5366C32.8893 17.0869 32.9642 16.5623 32.9642 16.1127L33.0392 14.389Z" fill="#B9B9B9"/>
<path d="M4.56182 7.49393L4.33701 7.04428L4.56182 7.49393C5.01147 7.26911 5.53607 7.11921 5.98572 6.96933C8.00914 6.44474 10.1824 6.51968 12.3557 7.34404C13.7796 7.86863 15.2035 8.09345 16.7773 8.09345C19.9248 8.09345 23.0723 6.96934 25.995 4.79604L27.1191 3.89674L27.4938 3.59697L26.8194 3.07238C26.5946 2.84755 26.2948 2.62274 25.995 2.47286L25.5454 2.1731L25.1707 2.47286C25.0208 2.5478 24.9458 2.69768 24.796 2.77262C20.8241 5.77027 16.8522 6.59463 13.1051 5.17075C10.4073 4.19651 7.70936 3.97169 5.01147 4.79604C4.78665 4.87098 4.56182 4.94591 4.26206 5.02085L4.11219 5.0958L3.88735 5.32061C3.88735 5.39556 3.81243 5.39557 3.73748 5.47051C3.43772 5.92015 3.063 6.29487 2.76323 6.74452L1.33936 8.91781L3.66254 7.71874C4.03725 7.71874 4.337 7.56887 4.56182 7.49393Z" fill="#B9B9B9"/>
<path d="M10.707 2.39811L10.9318 2.47305C11.906 2.84776 13.4049 3.22246 15.2784 3.22246C17.2269 3.22246 19.1004 2.77281 20.9739 2.0234L23.2971 0.899281L21.7233 0.374706C21.2737 0.224824 20.824 0.0749413 20.2994 0H20.0746L19.8498 0.074923C19.625 0.149864 19.4001 0.299765 19.1753 0.374706C16.9271 1.19906 14.6788 1.34894 12.5056 0.749413C12.2807 0.674471 12.0559 0.599516 11.8311 0.524575L11.6063 0.449629L11.3814 0.524575C10.9318 0.674458 10.4821 0.824349 10.0325 1.04917L8.30884 1.79859L10.1074 2.32316C10.2573 2.24822 10.4821 2.32317 10.707 2.39811Z" fill="#B9B9B9"/>
</g>
<defs>
<clipPath id="clip0_258_9624">
<rect x="0.0653076" width="32.9739" height="32" rx="16" fill="white"/>
</clipPath>
</defs>
</svg>
